<?xml version="1.0" encoding="UTF-8" standalone="no"?>
<!DOCTYPE svg PUBLIC "-//W3C//DTD SVG 1.1//EN" "http://www.w3.org/Graphics/SVG/1.1/DTD/svg11.dtd">
<svg width="100%" height="100%" viewBox="0 0 5906 5906" version="1.1" xmlns="http://www.w3.org/2000/svg" xmlns:xlink="http://www.w3.org/1999/xlink" xml:space="preserve" xmlns:serif="http://www.serif.com/" style="fill-rule:evenodd;clip-rule:evenodd;stroke-linecap:round;stroke-linejoin:round;stroke-miterlimit:1.5;">
    <g id="Film" transform="matrix(-0.788011,0.615661,-0.615661,-0.788011,7742.79,4241.41)">
        <g transform="matrix(0.977071,0.212915,-0.212915,0.977071,766.653,-410.469)">
            <path d="M2321.08,3246.72L2320.61,3246.82L1534.56,3418.11C1427.92,3441.35 1362.02,3555.09 1387.48,3671.94L1647.27,4864.12C1672.73,4980.98 1779.98,5056.98 1886.62,5033.74L2273.05,4949.53C2379.69,4926.3 2445.6,4812.56 2420.13,4695.71L2324.55,4257.1C2326.78,4222.75 2336.64,4184.62 2356.28,4150.73C2379.91,4109.95 2414.49,4080.84 2446.99,4065.46L2496.64,4054.64C2577.4,4037.04 2627.3,3950.91 2608.02,3862.42L2501.87,3375.27C2482.62,3286.96 2401.69,3229.46 2321.08,3246.72ZM1812.53,4878.07C1810.1,4866.93 1799.08,4859.85 1787.93,4862.28L1747.54,4871.08C1736.4,4873.51 1729.32,4884.53 1731.75,4895.68L1753.12,4993.77C1755.55,5004.91 1766.57,5011.99 1777.72,5009.56L1818.11,5000.76C1829.26,4998.33 1836.33,4987.31 1833.9,4976.17L1812.53,4878.07ZM1962.02,4845.5C1959.59,4834.35 1948.57,4827.28 1937.42,4829.7L1897.03,4838.51C1885.89,4840.93 1878.81,4851.95 1881.24,4863.1L1902.62,4961.19C1905.04,4972.34 1916.07,4979.42 1927.21,4976.99L1967.6,4968.19C1978.75,4965.76 1985.83,4954.74 1983.4,4943.59L1962.02,4845.5ZM2111.73,4813.9C2109.3,4802.75 2098.28,4795.68 2087.13,4798.11L2046.74,4806.91C2035.59,4809.34 2028.52,4820.36 2030.94,4831.5L2052.32,4929.59C2054.75,4940.74 2065.77,4947.82 2076.92,4945.39L2117.31,4936.59C2128.45,4934.16 2135.53,4923.14 2133.1,4911.99L2111.73,4813.9ZM2261.18,4780.31C2258.75,4769.16 2247.73,4762.08 2236.59,4764.51L2196.2,4773.32C2185.05,4775.74 2177.97,4786.77 2180.4,4797.91L2201.78,4896C2204.2,4907.15 2215.23,4914.23 2226.37,4911.8L2266.76,4902.99C2277.91,4900.57 2284.99,4889.55 2282.56,4878.4L2261.18,4780.31ZM1661.83,3464.76C1659.4,3453.61 1648.38,3446.53 1637.23,3448.96L1596.84,3457.76C1585.69,3460.19 1578.62,3471.21 1581.05,3482.36L1602.42,3580.45C1604.85,3591.6 1615.87,3598.67 1627.02,3596.24L1667.41,3587.44C1678.55,3585.01 1685.63,3573.99 1683.2,3562.85L1661.83,3464.76ZM1812.3,3431.97C1809.87,3420.82 1798.85,3413.74 1787.7,3416.17L1747.31,3424.97C1736.16,3427.4 1729.09,3438.42 1731.51,3449.57L1752.89,3547.66C1755.32,3558.81 1766.34,3565.88 1777.49,3563.45L1817.88,3554.65C1829.02,3552.22 1836.1,3541.2 1833.67,3530.06L1812.3,3431.97ZM1962.76,3399.18C1960.34,3388.03 1949.31,3380.95 1938.17,3383.38L1897.78,3392.18C1886.63,3394.61 1879.55,3405.63 1881.98,3416.78L1903.36,3514.87C1905.79,3526.02 1916.81,3533.1 1927.95,3530.67L1968.35,3521.87C1979.49,3519.44 1986.57,3508.41 1984.14,3497.27L1962.76,3399.18ZM2112.26,3366.6C2109.83,3355.45 2098.81,3348.38 2087.66,3350.81L2047.27,3359.61C2036.12,3362.04 2029.05,3373.06 2031.48,3384.2L2052.85,3482.3C2055.28,3493.44 2066.3,3500.52 2077.45,3498.09L2117.84,3489.29C2128.98,3486.86 2136.06,3475.84 2133.63,3464.69L2112.26,3366.6ZM2261.75,3334.03C2259.32,3322.88 2248.3,3315.8 2237.15,3318.23L2196.76,3327.03C2185.62,3329.46 2178.54,3340.48 2180.97,3351.63L2202.34,3449.72C2204.77,3460.87 2215.79,3467.94 2226.94,3465.51L2267.33,3456.71C2278.47,3454.28 2285.55,3443.26 2283.12,3432.12L2261.75,3334.03ZM2411.42,3301.41C2408.99,3290.26 2397.97,3283.19 2386.82,3285.62L2346.43,3294.42C2335.28,3296.85 2328.21,3307.87 2330.64,3319.01L2352.01,3417.11C2354.44,3428.25 2365.46,3435.33 2376.61,3432.9L2417,3424.1C2428.14,3421.67 2435.22,3410.65 2432.79,3399.5L2411.42,3301.41Z" style="fill:rgb(89,89,89);"/>
        </g>
        <g transform="matrix(1,0,0,1,-472,-369.189)">
            <g transform="matrix(1.00336,0,0,1.02705,-2.72456,-94.6053)">
                <rect x="810" y="3498" width="1236" height="1840" style="fill:url(#_Linear1);"/>
            </g>
            <g transform="matrix(1.04762,0,0,1.01237,-68.099,1935.06)">
                <path d="M2050.16,3366.75C2050.16,3342.6 2031.21,3323 2007.88,3323L852.278,3323C828.944,3323 810,3342.6 810,3366.75L810,3454.25C810,3478.4 828.944,3498 852.278,3498L2007.88,3498C2031.21,3498 2050.16,3478.4 2050.16,3454.25L2050.16,3366.75Z" style="fill:url(#_Linear2);"/>
            </g>
            <path d="M1193.86,3409.42L824.764,3409.42C800.319,3409.42 780.472,3429.26 780.472,3453.71L780.472,3542.29C780.472,3566.74 800.319,3586.58 824.764,3586.58L2035.39,3586.58C2059.84,3586.58 2079.68,3566.74 2079.68,3542.29L2079.68,3453.71C2079.68,3429.26 2059.84,3409.42 2035.39,3409.42L1666.3,3409.42L1666.3,3320.84C1666.3,3288.24 1639.84,3261.78 1607.24,3261.78L1252.91,3261.78C1220.32,3261.78 1193.86,3288.24 1193.86,3320.84L1193.86,3409.42Z" style="fill:url(#_Linear3);"/>
        </g>
    </g>
    <g id="Camera" transform="matrix(0.934649,0.355572,-0.355572,0.934649,1085.55,-618.363)">
        <g transform="matrix(1.06265,0,-5.55112e-17,0.998242,-335.689,-14.5131)">
            <path d="M5051,2065.75C5051,1706.59 4777.08,1415 4439.69,1415L1883.31,1415C1545.92,1415 1272,1706.59 1272,2065.75L1272,3367.25C1272,3726.41 1545.92,4018 1883.31,4018L4439.69,4018C4777.08,4018 5051,3726.41 5051,3367.25L5051,2065.75Z" style="fill:white;stroke:black;stroke-width:60.62px;"/>
        </g>
        <g transform="matrix(0.97969,0,0,1.67872,123.503,-1970.48)">
            <rect x="911" y="2288" width="4099" height="985" style="fill:rgb(43,71,43);"/>
        </g>
        <g transform="matrix(1.06265,0,0,0.998242,-335.689,-14.5131)">
            <path d="M5051,2065.75C5051,1706.59 4777.08,1415 4439.69,1415L1883.31,1415C1545.92,1415 1272,1706.59 1272,2065.75L1272,3367.25C1272,3726.41 1545.92,4018 1883.31,4018L4439.69,4018C4777.08,4018 5051,3726.41 5051,3367.25L5051,2065.75Z" style="fill:none;stroke:black;stroke-width:60.62px;"/>
        </g>
        <g transform="matrix(1.17393,0,0,1.21833,-693.37,-661.112)">
            <ellipse cx="3166.5" cy="2756.5" rx="905.5" ry="872.5" style="fill:rgb(255,140,0);stroke:black;stroke-width:41.79px;"/>
        </g>
        <g transform="matrix(0.847837,0,0,0.879904,339.198,271.756)">
            <ellipse cx="3166.5" cy="2756.5" rx="905.5" ry="872.5" style="fill:rgb(64,64,64);stroke:black;stroke-width:57.87px;"/>
        </g>
        <g transform="matrix(-5.1086,0,0,6.57197,20948.1,-18042.8)">
            <path d="M3392.58,3158.24C3393.13,3130.09 3404.27,3111.37 3427.1,3092.35C3448.35,3074.64 3481.28,3064.86 3508.63,3064.65" style="fill:none;stroke:white;stroke-width:21.24px;stroke-linejoin:miter;"/>
        </g>
        <g transform="matrix(1.05746,0,0,0.961362,-289.895,34.7372)">
            <rect x="4190" y="2025" width="726" height="430" style="fill:white;stroke:black;stroke-width:61.85px;"/>
        </g>
        <g transform="matrix(0.941442,0,0,0.755906,-1667.74,341.244)">
            <rect x="3791.59" y="1148" width="752.74" height="250" style="fill:rgb(77,77,77);stroke:black;stroke-width:73.21px;"/>
        </g>
        <g transform="matrix(0.987721,-0.156227,0.156227,0.987721,-405.116,506.345)">
            <path d="M3391.99,3176.04C3440.53,3146.8 3476.39,3113.32 3508.63,3064.65" style="fill:none;stroke:white;stroke-width:125px;stroke-linejoin:miter;"/>
        </g>
    </g>
    <g id="Film1" serif:id="Film" transform="matrix(0.977071,-0.212915,0.212915,0.977071,-661.68,564.289)">
        <g transform="matrix(0.977071,0.212915,-0.212915,0.977071,766.653,-410.469)">
            <path d="M2321.08,3246.72L2320.61,3246.82L1534.56,3418.11C1427.92,3441.35 1362.02,3555.09 1387.48,3671.94L1647.27,4864.12C1672.73,4980.98 1779.98,5056.98 1886.62,5033.74L2273.05,4949.53C2379.69,4926.3 2445.6,4812.56 2420.13,4695.71L2324.55,4257.1C2326.78,4222.75 2336.64,4184.62 2356.28,4150.73C2379.91,4109.95 2414.49,4080.84 2446.99,4065.46L2496.64,4054.64C2577.4,4037.04 2627.3,3950.91 2608.02,3862.42L2501.87,3375.27C2482.62,3286.96 2401.69,3229.46 2321.08,3246.72ZM1812.53,4878.07C1810.1,4866.93 1799.08,4859.85 1787.93,4862.28L1747.54,4871.08C1736.4,4873.51 1729.32,4884.53 1731.75,4895.68L1753.12,4993.77C1755.55,5004.91 1766.57,5011.99 1777.72,5009.56L1818.11,5000.76C1829.26,4998.33 1836.33,4987.31 1833.9,4976.17L1812.53,4878.07ZM1962.02,4845.5C1959.59,4834.35 1948.57,4827.28 1937.42,4829.7L1897.03,4838.51C1885.89,4840.93 1878.81,4851.95 1881.24,4863.1L1902.62,4961.19C1905.04,4972.34 1916.07,4979.42 1927.21,4976.99L1967.6,4968.19C1978.75,4965.76 1985.83,4954.74 1983.4,4943.59L1962.02,4845.5ZM2111.73,4813.9C2109.3,4802.75 2098.28,4795.68 2087.13,4798.11L2046.74,4806.91C2035.59,4809.34 2028.52,4820.36 2030.94,4831.5L2052.32,4929.59C2054.75,4940.74 2065.77,4947.82 2076.92,4945.39L2117.31,4936.59C2128.45,4934.16 2135.53,4923.14 2133.1,4911.99L2111.73,4813.9ZM2261.18,4780.31C2258.75,4769.16 2247.73,4762.08 2236.59,4764.51L2196.2,4773.32C2185.05,4775.74 2177.97,4786.77 2180.4,4797.91L2201.78,4896C2204.2,4907.15 2215.23,4914.23 2226.37,4911.8L2266.76,4902.99C2277.91,4900.57 2284.99,4889.55 2282.56,4878.4L2261.18,4780.31ZM1661.83,3464.76C1659.4,3453.61 1648.38,3446.53 1637.23,3448.96L1596.84,3457.76C1585.69,3460.19 1578.62,3471.21 1581.05,3482.36L1602.42,3580.45C1604.85,3591.6 1615.87,3598.67 1627.02,3596.24L1667.41,3587.44C1678.55,3585.01 1685.63,3573.99 1683.2,3562.85L1661.83,3464.76ZM1812.3,3431.97C1809.87,3420.82 1798.85,3413.74 1787.7,3416.17L1747.31,3424.97C1736.16,3427.4 1729.09,3438.42 1731.51,3449.57L1752.89,3547.66C1755.32,3558.81 1766.34,3565.88 1777.49,3563.45L1817.88,3554.65C1829.02,3552.22 1836.1,3541.2 1833.67,3530.06L1812.3,3431.97ZM1962.76,3399.18C1960.34,3388.03 1949.31,3380.95 1938.17,3383.38L1897.78,3392.18C1886.63,3394.61 1879.55,3405.63 1881.98,3416.78L1903.36,3514.87C1905.79,3526.02 1916.81,3533.1 1927.95,3530.67L1968.35,3521.87C1979.49,3519.44 1986.57,3508.41 1984.14,3497.27L1962.76,3399.18ZM2112.26,3366.6C2109.83,3355.45 2098.81,3348.38 2087.66,3350.81L2047.27,3359.61C2036.12,3362.04 2029.05,3373.06 2031.48,3384.2L2052.85,3482.3C2055.28,3493.44 2066.3,3500.52 2077.45,3498.09L2117.84,3489.29C2128.98,3486.86 2136.06,3475.84 2133.63,3464.69L2112.26,3366.6ZM2261.75,3334.03C2259.32,3322.88 2248.3,3315.8 2237.15,3318.23L2196.76,3327.03C2185.62,3329.46 2178.54,3340.48 2180.97,3351.63L2202.34,3449.72C2204.77,3460.87 2215.79,3467.94 2226.94,3465.51L2267.33,3456.71C2278.47,3454.28 2285.55,3443.26 2283.12,3432.12L2261.75,3334.03ZM2411.42,3301.41C2408.99,3290.26 2397.97,3283.19 2386.82,3285.62L2346.43,3294.42C2335.28,3296.85 2328.21,3307.87 2330.64,3319.01L2352.01,3417.11C2354.44,3428.25 2365.46,3435.33 2376.61,3432.9L2417,3424.1C2428.14,3421.67 2435.22,3410.65 2432.79,3399.5L2411.42,3301.41Z" style="fill:rgb(89,89,89);"/>
        </g>
        <g transform="matrix(1,0,0,1,-472,-369.189)">
            <g transform="matrix(1.00336,0,0,1.02705,-2.72456,-94.6053)">
                <rect x="810" y="3498" width="1236" height="1840" style="fill:url(#_Linear4);"/>
            </g>
            <g transform="matrix(1.04762,0,0,1.01237,-68.099,1935.06)">
                <path d="M2050.16,3366.75C2050.16,3342.6 2031.21,3323 2007.88,3323L852.278,3323C828.944,3323 810,3342.6 810,3366.75L810,3454.25C810,3478.4 828.944,3498 852.278,3498L2007.88,3498C2031.21,3498 2050.16,3478.4 2050.16,3454.25L2050.16,3366.75Z" style="fill:url(#_Linear5);"/>
            </g>
            <path d="M1193.86,3409.42L824.764,3409.42C800.319,3409.42 780.472,3429.26 780.472,3453.71L780.472,3542.29C780.472,3566.74 800.319,3586.58 824.764,3586.58L2035.39,3586.58C2059.84,3586.58 2079.68,3566.74 2079.68,3542.29L2079.68,3453.71C2079.68,3429.26 2059.84,3409.42 2035.39,3409.42L1666.3,3409.42L1666.3,3320.84C1666.3,3288.24 1639.84,3261.78 1607.24,3261.78L1252.91,3261.78C1220.32,3261.78 1193.86,3288.24 1193.86,3320.84L1193.86,3409.42Z" style="fill:url(#_Linear6);"/>
        </g>
    </g>
    <defs>
        <linearGradient id="_Linear1" x1="0" y1="0" x2="1" y2="0" gradientUnits="userSpaceOnUse" gradientTransform="matrix(1236,0,0,1840,810,4418)"><stop offset="0" style="stop-color:rgb(255,140,0);stop-opacity:1"/><stop offset="0.55" style="stop-color:rgb(255,155,0);stop-opacity:1"/><stop offset="1" style="stop-color:rgb(255,212,0);stop-opacity:1"/></linearGradient>
        <linearGradient id="_Linear2" x1="0" y1="0" x2="1" y2="0" gradientUnits="userSpaceOnUse" gradientTransform="matrix(1240.16,0,0,175,810,3410.5)"><stop offset="0" style="stop-color:black;stop-opacity:1"/><stop offset="0.55" style="stop-color:rgb(18,18,18);stop-opacity:1"/><stop offset="1" style="stop-color:rgb(84,84,84);stop-opacity:1"/></linearGradient>
        <linearGradient id="_Linear3" x1="0" y1="0" x2="1" y2="0" gradientUnits="userSpaceOnUse" gradientTransform="matrix(1299.21,0,0,324.803,780.472,3424.18)"><stop offset="0" style="stop-color:black;stop-opacity:1"/><stop offset="0.55" style="stop-color:rgb(18,18,18);stop-opacity:1"/><stop offset="1" style="stop-color:rgb(84,84,84);stop-opacity:1"/></linearGradient>
        <linearGradient id="_Linear4" x1="0" y1="0" x2="1" y2="0" gradientUnits="userSpaceOnUse" gradientTransform="matrix(1236,0,0,1840,810,4418)"><stop offset="0" style="stop-color:rgb(255,140,0);stop-opacity:1"/><stop offset="0.55" style="stop-color:rgb(255,155,0);stop-opacity:1"/><stop offset="1" style="stop-color:rgb(255,212,0);stop-opacity:1"/></linearGradient>
        <linearGradient id="_Linear5" x1="0" y1="0" x2="1" y2="0" gradientUnits="userSpaceOnUse" gradientTransform="matrix(1240.16,0,0,175,810,3410.5)"><stop offset="0" style="stop-color:black;stop-opacity:1"/><stop offset="0.55" style="stop-color:rgb(18,18,18);stop-opacity:1"/><stop offset="1" style="stop-color:rgb(84,84,84);stop-opacity:1"/></linearGradient>
        <linearGradient id="_Linear6" x1="0" y1="0" x2="1" y2="0" gradientUnits="userSpaceOnUse" gradientTransform="matrix(1299.21,0,0,324.803,780.472,3424.18)"><stop offset="0" style="stop-color:black;stop-opacity:1"/><stop offset="0.55" style="stop-color:rgb(18,18,18);stop-opacity:1"/><stop offset="1" style="stop-color:rgb(84,84,84);stop-opacity:1"/></linearGradient>
    </defs>
</svg>
